<svg xmlns="http://www.w3.org/2000/svg" width="68.358" height="195.123" viewBox="0 0 68.358 195.123">
  <g id="ladder-1" transform="translate(-743.213 -634.467)">
    <path id="Path_33" data-name="Path 33" d="M2760.053,2114.461l51.18-189.155" transform="translate(-2015 -1289)" fill="none" stroke="#8b4513" stroke-linecap="round" stroke-width="3"/>
    <path id="Path_34" data-name="Path 34" d="M2773.29,2116.747l51.438-187.689" transform="translate(-2015 -1289)" fill="none" stroke="#8b4513" stroke-linecap="round" stroke-width="3"/>
    <path id="Path_35" data-name="Path 35" d="M2808.991,1932.125l13.345,6.418-4.18,13.855-12.305-7.32-3.4,12.815,12.423,6.143-3.67,12.835-11.638-6.673-4.18,12.815,12.916,5.731-3.752,12.863-11.916-6.61-3.448,12.238,12.569,6.315-4.012,13.036-12.073-6.438-3.388,12.877,12.231,5.353-3.092,12.692-12.74-6-3.388,12.781,12.644,5.449-3.869,12.781-11.867-6.411-3.484,13.42,12.094,5.635-3.456,12.045-11.867-6-2.975,11.592,12.369,5.36" transform="translate(-2015 -1289)" fill="none" stroke="#8b4513" stroke-width="2"/>
  </g>
</svg>
