<svg xmlns="http://www.w3.org/2000/svg" width="178.859" height="100.486" viewBox="0 0 178.859 100.486">
  <g id="Group_31" data-name="Group 31" transform="translate(-1046.761 -425.086)">
    <path id="Path_51" data-name="Path 51" d="M3239.962,1799.543l-172.491-84.109" transform="translate(-2015 -1289)" fill="none" stroke="#8b4513" stroke-linecap="round" stroke-width="3"/>
    <path id="Path_52" data-name="Path 52" d="M3233.8,1813.223l-171.381-83.364" transform="translate(-2015 -1289)" fill="none" stroke="#8b4513" stroke-linecap="round" stroke-width="3"/>
    <path id="Path_53" data-name="Path 53" d="M3227.881,1809.773l6.232-13.056-10.259-4.528-5.5,12.96-11.413-5.587,7.242-12.829-10.19-4.714-6.459,13.557-11.269-5.27,8.425-12.417-11.063-4.782-7.236,12.918-9.62-5.36,6.686-13.1-9.661-4.741-7.428,12.74-9.709-4.631,7.923-12.781-10.713-4.9-6.253,12.8-11.228-5.36,6.782-12.692-10.355-5.085-6.871,12.918-9.984-5.222,6.823-12.733-9.916-4.556-6.411,13.379-9.9-5.27,6.143-13.743-10.032-4.631-6.232,13.152-10.122-4.81,6.549-12.733" transform="translate(-2015 -1289)" fill="none" stroke="#8b4513" stroke-width="2"/>
  </g>
</svg>
