<svg xmlns="http://www.w3.org/2000/svg" width="235.509" height="380.288" viewBox="0 0 235.509 380.288">
  <g id="Group_32" data-name="Group 32" transform="translate(-865.19 -324.723)">
    <path id="Path_63" data-name="Path 63" d="M2893.894,1615.778l219.749,369.884" transform="translate(-2015 -1289)" fill="none" stroke="#8b4513" stroke-linecap="round" stroke-width="3"/>
    <path id="Path_64" data-name="Path 64" d="M3101.647,1993.246,2881.48,1622" transform="translate(-2015 -1289)" fill="none" stroke="#8b4513" stroke-linecap="round" stroke-width="3"/>
    <path id="Path_65" data-name="Path 65" d="M2895.253,1619.887l-10.328,7.534,7.616,12.661,10.628-8.514,7.615,12.552-11.222,8.486,7.307,11.71,11-8.457,7.7,13.227-11.193,8.51,7.587,11.7L2933,1681.4l7.656,12.267-11.767,8.4,8.445,13.47,10.95-8.132,7.428,12.36-11.193,7.7,7.005,11.925,11.117-7.912,6.912,11.844-11.454,8.189,7.644,12.332,11.385-8.648,7.371,13.174-11.332,8.242,7.51,11.978,10.925-8.295,7.831,12.6-12.182,8.583,7.835,11.6,10.921-7.725,7.335,12.413-11.385,8.27,8.254,12.6,11.031-8.673,6.831,11.873-11.251,8.648,7.823,12.36,11.327-8.189,7.051,12.011-11.669,8.579,7.929,12.617,11.112-9.567,7.034,13.2-11.547,8.473,6.981,10.9,11.681-8.648,6.859,12.983-10.86,8.335,7.132,11.645,10.34-8.579,6.925,11.181-10.734,9.026s6.53,10.99,6.424,10.746,10.193-9.543,10.193-9.543,6.725,10.384,6.453,10.466-11.572,9.026-11.629,8.864,6.725,10.181,6.778,10.043,10.954-8.4,10.978-8.242,6.123,9.84,6.123,9.84l-11.21,8.713" transform="translate(-2015 -1289)" fill="none" stroke="#8b4513" stroke-width="2"/>
  </g>
</svg>
