<svg xmlns="http://www.w3.org/2000/svg" width="119.933" height="173.2" viewBox="0 0 119.933 173.2">
  <g id="ladder-3" transform="translate(-1104.196 -637.528)">
    <path id="Path_39" data-name="Path 39" d="M3120.458,2090.952l105.04-163.613" transform="translate(-2015 -1289)" fill="none" stroke="#8b4513" stroke-linecap="round" stroke-width="3"/>
    <path id="Path_40" data-name="Path 40" d="M3131.536,2098.912l106.333-164.044" transform="translate(-2015 -1289)" fill="none" stroke="#8b4513" stroke-linecap="round" stroke-width="3"/>
    <path id="Path_41" data-name="Path 41" d="M3220.685,1934.476l12.149,9.165-7.379,9.942-10.9-8.513-6.7,9.853,12.086,8.7-6.968,9.71-11.5-9L3195.021,1975l11.193,8.522-6.012,9.192-11.255-8.692-6.673,10.121,11.675,8.1-6.994,10.987-10.782-8.754-6.164,9.737,10,8.7-5.833,9.585-10.192-8.933-7.227,10.809,11.014,7.977-6.494,10.335-11.193-8.692-5.244,9.165,11.559,8.04-7.512,10.6-10.478-8.459-6.727,10.308,10.479,8.692-7.441,11.523-9.826-9.71" transform="translate(-2015 -1289)" fill="none" stroke="#8b4513" stroke-width="2"/>
  </g>
</svg>
